#N canvas 834 756 2590 1081 12;
#X obj 16 323 dac~ 1 2;
#X floatatom 194 151 3 0 0 0 - - -;
#X obj 139 56 notein, f 24;
#X obj 134 118 stripnote;
#X floatatom 135 150 3 0 0 0 - - -;
#X text 136 41 MIDI IN;
#X obj 135 305 spigot;
#X obj 277 191 spigot;
#X obj 343 191 spigot;
#X obj 272 292 pack 0 0 0;
#X obj 289 244 poly 6 1;
#X obj 33 227 /~ 3;
#X obj 32 197 catch~ output;
#X obj 249 403 ride;
#X obj 123 355 select 36 40 48 59 55 39 56;
#X obj 289 403 splash;
#X obj 346 404 clap;
#X obj 387 404 cowbell;
#X obj 283 266 - 1;
#X floatatom 365 54 5 0 0 0 - - -;
#X obj 26 404 kickdrum;
#X obj 107 404 snaredrum;
#X obj 192 403 tomtom;
#X floatatom 29 105 5 0 0 0 - - -;
#X obj 31 44 r reverb;
#X floatatom 88 223 5 0 0 0 - - -;
#X obj 38 139 / 5;
#X obj 177 239 < 16;
#X obj 271 325 clone voice 6 1;
#X obj 317 130 == 1;
#X connect 2 0 3 0;
#X connect 2 0 7 0;
#X connect 2 1 3 1;
#X connect 2 1 8 0;
#X connect 2 2 19 0;
#X connect 2 2 27 0;
#X connect 2 2 29 0;
#X connect 3 0 4 0;
#X connect 3 1 1 0;
#X connect 4 0 6 0;
#X connect 6 0 14 0;
#X connect 7 0 10 0;
#X connect 8 0 10 1;
#X connect 9 0 28 0;
#X connect 10 0 18 0;
#X connect 10 1 9 1;
#X connect 10 2 9 2;
#X connect 11 0 0 0;
#X connect 11 0 0 1;
#X connect 12 0 11 0;
#X connect 14 0 20 0;
#X connect 14 1 21 0;
#X connect 14 2 22 0;
#X connect 14 3 13 0;
#X connect 14 4 15 0;
#X connect 14 5 16 0;
#X connect 14 6 17 0;
#X connect 18 0 9 0;
#X connect 23 0 26 0;
#X connect 24 0 23 0;
#X connect 26 0 25 0;
#X connect 27 0 6 1;
#X connect 29 0 7 1;
#X connect 29 0 8 1;
