#N canvas 640 710 2590 1081 12;
#X obj 16 323 dac~ 1 2;
#X floatatom 194 151 3 0 0 0 - - -;
#X obj 139 56 notein, f 24;
#X obj 134 118 stripnote;
#X floatatom 135 150 3 0 0 0 - - -;
#X text 136 41 MIDI IN;
#X obj 135 305 spigot;
#X obj 277 191 spigot;
#X obj 343 191 spigot;
#X obj 272 292 pack 0 0 0;
#X obj 33 227 /~ 3;
#X obj 32 197 catch~ output;
#X obj 249 403 ride;
#X obj 123 355 select 36 40 48 59 55 39 56;
#X obj 289 403 splash;
#X obj 346 404 clap;
#X obj 387 404 cowbell;
#X obj 272 257 - 1;
#X floatatom 424 133 5 0 0 0 - - -;
#X obj 26 404 kickdrum;
#X obj 107 404 snaredrum;
#X obj 192 403 tomtom;
#X obj 179 229 < 16;
#X obj 317 130 == 1;
#X obj 318 94 % 8;
#X text 352 96 Wrap the channel range;
#X obj 271 325 clone voice 6;
#X obj 289 230 poly 6 1;
#X obj 632 24 loadbang;
#X obj 648 78 controller;
#X connect 2 0 3 0;
#X connect 2 0 7 0;
#X connect 2 1 3 1;
#X connect 2 1 8 0;
#X connect 2 2 24 0;
#X connect 3 0 4 0;
#X connect 3 1 1 0;
#X connect 4 0 6 0;
#X connect 6 0 13 0;
#X connect 7 0 27 0;
#X connect 8 0 27 1;
#X connect 9 0 26 0;
#X connect 10 0 0 0;
#X connect 10 0 0 1;
#X connect 11 0 10 0;
#X connect 13 0 19 0;
#X connect 13 1 20 0;
#X connect 13 2 21 0;
#X connect 13 3 12 0;
#X connect 13 4 14 0;
#X connect 13 5 15 0;
#X connect 13 6 16 0;
#X connect 17 0 9 0;
#X connect 22 0 6 1;
#X connect 23 0 7 1;
#X connect 23 0 8 1;
#X connect 24 0 23 0;
#X connect 24 0 18 0;
#X connect 24 0 22 0;
#X connect 27 0 17 0;
#X connect 27 1 9 1;
#X connect 27 2 9 2;
#X connect 28 0 29 0;
