#N canvas 1490 568 1026 755 12;
#X obj 115 8 ctlin;
#X floatatom 67 68 5 0 0 0 value - -;
#X floatatom 207 66 5 0 0 0 controller - -;
#X msg 226 173 get \$1 1;
#X msg 73 308 set \; \$1 \$2;
#X obj 37 151 trigger bang float;
#X obj 214 135 - 21;
#X obj 75 270 pack send f;
#X obj 227 207 list store attack decay sine phase;
#X text 252 133 subtract 21 to get an index;
#X text 298 171 use the index on a store;
#X text 261 227 store of message names;
#X text 62 171 trigger a send on each input, f 13;
#X text 179 270 create a send command;
#X text 127 312 perform the send command;
#X connect 0 0 1 0;
#X connect 0 1 2 0;
#X connect 1 0 5 0;
#X connect 2 0 6 0;
#X connect 3 0 8 0;
#X connect 5 0 7 0;
#X connect 5 1 7 1;
#X connect 6 0 3 0;
#X connect 7 0 4 0;
#X connect 8 0 7 0;
