#N canvas 1011 1267 2155 755 12;
#X obj 115 8 ctlin;
#X floatatom 67 68 5 0 0 0 value - -;
#X floatatom 207 66 5 0 0 0 controller - -;
#X msg 226 173 get \$1 1;
#X msg 73 308 set \; \$1 \$2;
#X obj 37 151 trigger bang float;
#X obj 214 135 - 21;
#X obj 75 270 pack send f;
#X obj 227 207 list store attack decay sine phase;
#X text 252 133 subtract 21 to get an index;
#X text 298 171 use the index on a store;
#X text 261 227 store of message names;
#X text 62 171 trigger a send on each input, f 13;
#X text 179 270 create a send command;
#X text 127 312 perform the send command;
#X obj 645 16 inlet;
#X obj 623 74 80;
#X obj 612 152 send sine;
#X obj 691 76 0;
#X obj 694 151 send phase;
#X obj 751 72 20;
#X obj 754 122 send attack;
#X obj 862 124 send decay;
#X connect 0 0 1 0;
#X connect 0 1 2 0;
#X connect 1 0 5 0;
#X connect 2 0 6 0;
#X connect 3 0 8 0;
#X connect 5 0 7 0;
#X connect 5 1 7 1;
#X connect 6 0 3 0;
#X connect 7 0 4 0;
#X connect 8 0 7 0;
#X connect 15 0 16 0;
#X connect 15 0 18 0;
#X connect 15 0 20 0;
#X connect 16 0 17 0;
#X connect 18 0 19 0;
#X connect 20 0 21 0;
#X connect 20 0 22 0;
