#N canvas 2422 617 984 842 12;
#X obj 37 98 line~;
#X obj 37 132 sqrt~;
#X obj 37 200 -~ 0.25;
#X obj 37 232 cos~;
#X obj 37 168 *~ 20;
#X msg 37 65 0 \, 1 200;
#X text 109 -86 comment;
#X obj 37 33 inlet;
#X obj 38 264 throw~ output;
#X text 31 -8 Kick Drum;
#X connect 0 0 1 0;
#X connect 1 0 4 0;
#X connect 2 0 3 0;
#X connect 3 0 8 0;
#X connect 4 0 2 0;
#X connect 5 0 0 0;
#X connect 7 0 5 0;
