#N canvas 2739 566 871 725 12;
#X obj 17 24 inlet;
#X floatatom 15 86 5 0 0 0 - - -;
#X floatatom 91 86 5 0 0 0 - - -;
#X obj 19 133 mtof;
#X obj 21 294 *~;
#X obj 14 57 unpack 0 0;
#X obj 92 121 select 0;
#X obj 219 156 / 127;
#X obj 20 353 outlet~;
#X obj 270 157 r attack;
#X obj 226 219 pack \$1 \$2;
#X obj 294 191 * 6;
#X obj 111 154 r decay;
#X obj 135 262 line~;
#X obj 82 218 pack 0 \$1;
#X obj 142 185 * 8;
#X obj 20 186 sound;
#X connect 0 0 5 0;
#X connect 1 0 3 0;
#X connect 2 0 6 0;
#X connect 3 0 16 0;
#X connect 4 0 8 0;
#X connect 5 0 1 0;
#X connect 5 1 2 0;
#X connect 6 0 14 0;
#X connect 6 1 7 0;
#X connect 7 0 10 0;
#X connect 9 0 11 0;
#X connect 10 0 13 0;
#X connect 11 0 10 1;
#X connect 12 0 15 0;
#X connect 13 0 4 1;
#X connect 14 0 13 0;
#X connect 15 0 14 1;
#X connect 16 0 4 0;
