#N canvas 2842 696 678 912 12;
#X obj 35 100 bng 24 250 50 0 empty empty empty 17 7 0 10 -4034 -1
-1;
#X obj 35 129 t b b;
#X msg 35 158 1 \, 0 100;
#X obj 35 187 line~;
#X obj 35 216 pow~ 4;
#X obj 35 245 *~;
#X obj 215 187 line~;
#X obj 215 216 pow~ 4;
#X obj 215 245 *~;
#X msg 215 158 1 \, 0 200;
#X obj 35 274 +~;
#X obj 35 303 lop~ 4000;
#X obj 109 221 osc~ 200;
#X text 109 196 // DRUM;
#X text 28 30 –– SNARE DRUM –––––––––––––––––––––
;
#X obj 33 53 inlet;
#X obj 35 337 throw~ output;
#X connect 0 0 1 0;
#X connect 1 0 2 0;
#X connect 1 1 9 0;
#X connect 2 0 3 0;
#X connect 3 0 4 0;
#X connect 4 0 5 0;
#X connect 5 0 10 0;
#X connect 6 0 7 0;
#X connect 7 0 8 0;
#X connect 8 0 10 1;
#X connect 9 0 6 0;
#X connect 10 0 11 0;
#X connect 11 0 16 0;
#X connect 12 0 5 1;
#X connect 15 0 0 0;
