#N canvas 2599 1158 1022 601 12;
#X obj 93 0 inlet;
#X obj 91 70 osc~;
#X obj 116 217 outlet~;
#X obj 254 53 phasor~;
#X obj 262 174 *~ \$1;
#X obj 327 59 r phase;
#X obj 324 89 / 127;
#X obj 250 112 *~ 2;
#X obj 249 142 -~ 1;
#X floatatom 350 132 5 0 0 0 - - -;
#X obj 152 86 / 127;
#X floatatom 177 116 5 0 0 0 - - -;
#X obj 155 56 r sine;
#X obj 97 140 *~ \$1;
#X connect 0 0 1 0;
#X connect 0 0 3 0;
#X connect 1 0 13 0;
#X connect 3 0 7 0;
#X connect 4 0 2 0;
#X connect 5 0 6 0;
#X connect 6 0 9 0;
#X connect 7 0 8 0;
#X connect 8 0 4 0;
#X connect 9 0 4 1;
#X connect 10 0 11 0;
#X connect 11 0 13 1;
#X connect 12 0 10 0;
#X connect 13 0 2 0;
