#N canvas 2867 790 655 792 12;
#X obj 30 76 bng 24 250 50 0 empty empty empty 17 7 0 10 -4034 -1 -1
;
#X msg 30 105 0 \, 1 200;
#X obj 30 134 line~;
#X text 127 118 <- Ramp Generator;
#X obj 30 242 -~ 0.25;
#X obj 30 271 cos~;
#X obj 30 168 sqrt~;
#X obj 30 305 lop~ 1000;
#X text 104 259 <- Sine Waveshaper;
#X text 90 168 <- Pitch Bend;
#X text 90 202 <- Pitch;
#X text 29 4 –– TOMTOM –––––––––––––
;
#X obj 30 202 *~ 50;
#X obj 30 37 inlet;
#X obj 30 339 throw~ output;
#X connect 0 0 1 0;
#X connect 1 0 2 0;
#X connect 2 0 6 0;
#X connect 4 0 5 0;
#X connect 5 0 7 0;
#X connect 6 0 12 0;
#X connect 7 0 14 0;
#X connect 12 0 4 0;
#X connect 13 0 0 0;
