#N canvas 800 302 1354 1290 12;
#X obj 14 6 inlet;
#X floatatom 17 85 5 0 0 1 MIDI_note_number - -;
#X floatatom 303 86 5 0 0 0 MIDI_velocity - -;
#X obj 15 113 mtof;
#X obj 29 381 *~;
#X obj 14 43 unpack 0 0;
#X obj 335 160 select 0;
#X obj 438 195 / 127;
#X obj 421 258 pack \$1 \$2;
#X obj 489 230 * 6;
#X obj 356 305 line~;
#X obj 303 261 pack 0 \$1;
#X obj 363 228 * 8;
#X obj 30 423 throw~ output;
#X obj 15 207 osc~;
#X obj 168 152 phasor~;
#X obj 185 273 *~ \$1;
#X obj 237 192 / 127;
#X obj 169 182 *~ 2;
#X obj 170 213 -~ 1;
#X floatatom 237 222 5 0 0 0 - - -;
#X obj 75 192 / 127;
#X floatatom 75 222 5 0 0 0 - - -;
#X obj 15 276 *~ \$1;
#X text 51 110 convert note to frequency;
#X text 437 286 note on;
#X text 271 293 note off;
#X obj 37 158 receive sine;
#X obj 228 161 receive phase;
#X obj 504 195 receive attack;
#X obj 334 198 receive decay;
#X obj 76 290 print \$1;
#X obj 369 117 print \$1;
#X connect 0 0 5 0;
#X connect 1 0 3 0;
#X connect 2 0 6 0;
#X connect 2 0 32 0;
#X connect 3 0 14 0;
#X connect 3 0 15 0;
#X connect 3 0 31 0;
#X connect 4 0 13 0;
#X connect 5 0 1 0;
#X connect 5 1 2 0;
#X connect 6 0 11 0;
#X connect 6 1 7 0;
#X connect 7 0 8 0;
#X connect 8 0 10 0;
#X connect 9 0 8 1;
#X connect 10 0 4 1;
#X connect 11 0 10 0;
#X connect 12 0 11 1;
#X connect 14 0 23 0;
#X connect 15 0 18 0;
#X connect 16 0 4 0;
#X connect 17 0 20 0;
#X connect 18 0 19 0;
#X connect 19 0 16 0;
#X connect 20 0 16 1;
#X connect 21 0 22 0;
#X connect 22 0 23 1;
#X connect 23 0 4 0;
#X connect 27 0 21 0;
#X connect 28 0 17 0;
#X connect 29 0 9 0;
#X connect 30 0 12 0;
